<?xml version="1.0" encoding="UTF-8"?>
<svg version="1.1" xmlns="http://www.w3.org/2000/svg" width="32" height="32">
<path d="M0 0 C1.04317383 -0.01836914 1.04317383 -0.01836914 2.10742188 -0.03710938 C6.87689658 -0.05046925 10.7839037 0.68588157 15.3125 2.1875 C15.3125 2.8475 15.3125 3.5075 15.3125 4.1875 C13.6625 4.1875 12.0125 4.1875 10.3125 4.1875 C10.3125 4.8475 10.3125 5.5075 10.3125 6.1875 C12.6225 6.5175 14.9325 6.8475 17.3125 7.1875 C17.3125 8.5075 17.3125 9.8275 17.3125 11.1875 C16.6525 11.1875 15.9925 11.1875 15.3125 11.1875 C15.3125 11.8475 15.3125 12.5075 15.3125 13.1875 C14.3225 13.8475 13.3325 14.5075 12.3125 15.1875 C13.9625 15.8475 15.6125 16.5075 17.3125 17.1875 C17.3125 20.1575 17.3125 23.1275 17.3125 26.1875 C15.9925 26.1875 14.6725 26.1875 13.3125 26.1875 C13.3125 26.8475 13.3125 27.5075 13.3125 28.1875 C14.6325 28.5175 15.9525 28.8475 17.3125 29.1875 C17.3125 30.1775 17.3125 31.1675 17.3125 32.1875 C13.0225 32.1875 8.7325 32.1875 4.3125 32.1875 C4.3125 31.1975 4.3125 30.2075 4.3125 29.1875 C3.6525 29.1875 2.9925 29.1875 2.3125 29.1875 C2.3125 28.1975 2.3125 27.2075 2.3125 26.1875 C1.6525 26.1875 0.9925 26.1875 0.3125 26.1875 C0.3125 27.1775 0.3125 28.1675 0.3125 29.1875 C-0.3475 29.1875 -1.0075 29.1875 -1.6875 29.1875 C-1.6875 30.1775 -1.6875 31.1675 -1.6875 32.1875 C-5.9775 32.1875 -10.2675 32.1875 -14.6875 32.1875 C-14.6875 31.1975 -14.6875 30.2075 -14.6875 29.1875 C-13.3675 28.8575 -12.0475 28.5275 -10.6875 28.1875 C-10.6875 27.5275 -10.6875 26.8675 -10.6875 26.1875 C-12.0075 26.1875 -13.3275 26.1875 -14.6875 26.1875 C-14.6875 23.2175 -14.6875 20.2475 -14.6875 17.1875 C-13.3675 16.8575 -12.0475 16.5275 -10.6875 16.1875 C-10.6875 15.5275 -10.6875 14.8675 -10.6875 14.1875 C-11.3475 13.8575 -12.0075 13.5275 -12.6875 13.1875 C-12.6875 10.8775 -12.6875 8.5675 -12.6875 6.1875 C-12.0275 6.1875 -11.3675 6.1875 -10.6875 6.1875 C-10.501875 4.9809375 -10.501875 4.9809375 -10.3125 3.75 C-10.10625 2.904375 -9.9 2.05875 -9.6875 1.1875 C-6.60561519 -0.3534424 -3.37877677 0.00304669 0 0 Z " fill="#D73003" transform="translate(14.6875,-0.1875)"/>
<path d="M0 0 C1.04317383 -0.01836914 1.04317383 -0.01836914 2.10742188 -0.03710938 C6.87689658 -0.05046925 10.7839037 0.68588157 15.3125 2.1875 C15.3125 2.8475 15.3125 3.5075 15.3125 4.1875 C12.6725 4.1875 10.0325 4.1875 7.3125 4.1875 C7.3125 5.5075 7.3125 6.8275 7.3125 8.1875 C6.6525 8.1875 5.9925 8.1875 5.3125 8.1875 C5.3125 6.8675 5.3125 5.5475 5.3125 4.1875 C3.6625 4.1875 2.0125 4.1875 0.3125 4.1875 C0.3125 4.8475 0.3125 5.5075 0.3125 6.1875 C-0.6775 6.1875 -1.6675 6.1875 -2.6875 6.1875 C-2.6875 6.8475 -2.6875 7.5075 -2.6875 8.1875 C-1.6975 8.1875 -0.7075 8.1875 0.3125 8.1875 C0.3125 8.8475 0.3125 9.5075 0.3125 10.1875 C-1.3375 10.1875 -2.9875 10.1875 -4.6875 10.1875 C-4.6875 10.8475 -4.6875 11.5075 -4.6875 12.1875 C-5.6775 12.1875 -6.6675 12.1875 -7.6875 12.1875 C-7.6875 12.8475 -7.6875 13.5075 -7.6875 14.1875 C-6.0375 14.1875 -4.3875 14.1875 -2.6875 14.1875 C-2.6875 16.1675 -2.6875 18.1475 -2.6875 20.1875 C-3.3475 20.1875 -4.0075 20.1875 -4.6875 20.1875 C-4.6875 20.8475 -4.6875 21.5075 -4.6875 22.1875 C-5.6775 22.1875 -6.6675 22.1875 -7.6875 22.1875 C-7.6875 21.5275 -7.6875 20.8675 -7.6875 20.1875 C-9.9975 20.1875 -12.3075 20.1875 -14.6875 20.1875 C-14.6875 19.1975 -14.6875 18.2075 -14.6875 17.1875 C-13.3675 16.8575 -12.0475 16.5275 -10.6875 16.1875 C-10.6875 15.5275 -10.6875 14.8675 -10.6875 14.1875 C-11.3475 13.8575 -12.0075 13.5275 -12.6875 13.1875 C-12.6875 10.8775 -12.6875 8.5675 -12.6875 6.1875 C-12.0275 6.1875 -11.3675 6.1875 -10.6875 6.1875 C-10.501875 4.9809375 -10.501875 4.9809375 -10.3125 3.75 C-10.10625 2.904375 -9.9 2.05875 -9.6875 1.1875 C-6.60561519 -0.3534424 -3.37877677 0.00304669 0 0 Z " fill="#967507" transform="translate(14.6875,-0.1875)"/>
<path d="M0 0 C1.65 0 3.3 0 5 0 C5 1.32 5 2.64 5 4 C5.66 4 6.32 4 7 4 C7 2.68 7 1.36 7 0 C7.99 0 8.98 0 10 0 C10 0.66 10 1.32 10 2 C12.31 2.33 14.62 2.66 17 3 C17 4.32 17 5.64 17 7 C16.34 7 15.68 7 15 7 C15 7.66 15 8.32 15 9 C11.72721861 11.18185426 11.0648752 11.21432326 7.33203125 10.9765625 C6.43935547 10.925 5.54667969 10.8734375 4.62695312 10.8203125 C3.69818359 10.75585938 2.76941406 10.69140625 1.8125 10.625 C0.87212891 10.56828125 -0.06824219 10.5115625 -1.03710938 10.453125 C-3.35884909 10.31169923 -5.6794993 10.1602967 -8 10 C-8 9.34 -8 8.68 -8 8 C-7.01 8 -6.02 8 -5 8 C-5 7.34 -5 6.68 -5 6 C-3.35 6 -1.7 6 0 6 C0 5.34 0 4.68 0 4 C-0.99 4 -1.98 4 -3 4 C-3 3.34 -3 2.68 -3 2 C-2.01 2 -1.02 2 0 2 C0 1.34 0 0.68 0 0 Z " fill="#F8993E" transform="translate(15,4)"/>
<path d="M0 0 C1.04317383 -0.01836914 1.04317383 -0.01836914 2.10742188 -0.03710938 C6.87689658 -0.05046925 10.7839037 0.68588157 15.3125 2.1875 C15.3125 2.8475 15.3125 3.5075 15.3125 4.1875 C12.6725 4.1875 10.0325 4.1875 7.3125 4.1875 C7.3125 5.5075 7.3125 6.8275 7.3125 8.1875 C6.6525 8.1875 5.9925 8.1875 5.3125 8.1875 C5.3125 6.8675 5.3125 5.5475 5.3125 4.1875 C0.0325 4.1875 -5.2475 4.1875 -10.6875 4.1875 C-10.3575 3.1975 -10.0275 2.2075 -9.6875 1.1875 C-6.60561519 -0.3534424 -3.37877677 0.00304669 0 0 Z " fill="#D33F00" transform="translate(14.6875,-0.1875)"/>
<path d="M0 0 C1.65 0 3.3 0 5 0 C5 0.66 5 1.32 5 2 C6.65 2 8.3 2 10 2 C10 3.98 10 5.96 10 8 C9.34 8 8.68 8 8 8 C8 8.66 8 9.32 8 10 C7.01 10 6.02 10 5 10 C5 9.34 5 8.68 5 8 C2.69 8 0.38 8 -2 8 C-2 7.01 -2 6.02 -2 5 C-0.68 4.67 0.64 4.34 2 4 C2 3.34 2 2.68 2 2 C1.34 1.34 0.68 0.68 0 0 Z " fill="#8F7900" transform="translate(2,12)"/>
<path d="M0 0 C2.64 0 5.28 0 8 0 C8 0.66 8 1.32 8 2 C9.670625 1.9690625 9.670625 1.9690625 11.375 1.9375 C15 2 15 2 17 3 C17 3.99 17 4.98 17 6 C15.35 6 13.7 6 12 6 C12 6.66 12 7.32 12 8 C11.34 8 10.68 8 10 8 C10 7.34 10 6.68 10 6 C9.01 6 8.02 6 7 6 C7 4.68 7 3.36 7 2 C6.34 2 5.68 2 5 2 C5 2.66 5 3.32 5 4 C3.35 4 1.7 4 0 4 C0 2.68 0 1.36 0 0 Z " fill="#8C7300" transform="translate(15,14)"/>
<path d="M0 0 C2.12493141 -0.02693575 4.24995912 -0.04636628 6.375 -0.0625 C7.55835938 -0.07410156 8.74171875 -0.08570312 9.9609375 -0.09765625 C13 0 13 0 15 1 C15 1.99 15 2.98 15 4 C10.71 4 6.42 4 2 4 C2 3.01 2 2.02 2 1 C1.34 0.67 0.68 0.34 0 0 Z " fill="#897100" transform="translate(17,28)"/>
<path d="M0 0 C1.18851563 0.00902344 2.37703125 0.01804687 3.6015625 0.02734375 C4.51679688 0.03894531 5.43203125 0.05054687 6.375 0.0625 C5.385 0.5575 5.385 0.5575 4.375 1.0625 C4.375 2.0525 4.375 3.0425 4.375 4.0625 C0.085 4.0625 -4.205 4.0625 -8.625 4.0625 C-8.625 3.0725 -8.625 2.0825 -8.625 1.0625 C-5.74084117 -0.37957941 -3.20778472 -0.03144887 0 0 Z " fill="#897100" transform="translate(8.625,27.9375)"/>
<path d="M0 0 C2.31 0 4.62 0 7 0 C7 0.66 7 1.32 7 2 C7.99 2 8.98 2 10 2 C10 2.66 10 3.32 10 4 C9.01 4 8.02 4 7 4 C7 4.66 7 5.32 7 6 C4.69 6 2.38 6 0 6 C0 4.02 0 2.04 0 0 Z " fill="#FA9637" transform="translate(0,20)"/>
<path d="M0 0 C0.99 0 1.98 0 3 0 C3 0.66 3 1.32 3 2 C5.31 2.33 7.62 2.66 10 3 C10 4.32 10 5.64 10 7 C7.69 6.67 5.38 6.34 3 6 C3 5.34 3 4.68 3 4 C2.01 4 1.02 4 0 4 C0 2.68 0 1.36 0 0 Z " fill="#F9A04B" transform="translate(22,4)"/>
<path d="M0 0 C1.65 0 3.3 0 5 0 C5 1.98 5 3.96 5 6 C3.35 6 1.7 6 0 6 C0 5.34 0 4.68 0 4 C-0.66 4 -1.32 4 -2 4 C-2 3.34 -2 2.68 -2 2 C-1.34 2 -0.68 2 0 2 C0 1.34 0 0.68 0 0 Z " fill="#FA9637" transform="translate(27,20)"/>
<path d="M0 0 C0.99 0 1.98 0 3 0 C3 0.66 3 1.32 3 2 C4.65 2 6.3 2 8 2 C8 2.99 8 3.98 8 5 C4.7 4.67 1.4 4.34 -2 4 C-2 3.34 -2 2.68 -2 2 C-1.34 2 -0.68 2 0 2 C0 1.34 0 0.68 0 0 Z " fill="#8C7402" transform="translate(22,8)"/>
</svg>
